<?xml version="1.0" encoding="utf-8"?>
<!-- Generator: Adobe Illustrator 25.4.1, SVG Export Plug-In . SVG Version: 6.00 Build 0)  -->
<svg version="1.1" id="Capa_1" xmlns="http://www.w3.org/2000/svg" xmlns:xlink="http://www.w3.org/1999/xlink" x="0px" y="0px"
	 viewBox="0 0 2551.18 992.13" style="enable-background:new 0 0 2551.18 992.13;" xml:space="preserve">
<style type="text/css">
	.st0{fill:#FFFFFF;}
</style>
<g>
	<path class="st0" d="M1274.66,281.63c-48.08,56.09-94.19,109.84-140.26,163.64C1009,591.72,883.49,738.08,758.36,884.76
		c-20.67,24.23-44.69,41.74-77.22,43.12c-43.05,1.84-76.24-16.52-95.32-55.17c-19.47-39.45-13.85-77.57,14.67-111.2
		c54.02-63.7,108.56-126.95,162.91-190.38c138.15-161.23,276.31-322.44,414.47-483.66c6.1-7.11,12.13-14.28,18.38-21.26
		c45.51-50.82,111.62-51.24,156.84,0.45c59.1,67.56,117.06,136.12,175.47,204.29c139.68,163,279.39,325.98,418.96,489.07
		c29.28,34.22,35.63,72.82,15.54,113.13c-19.22,38.55-52.54,56.75-95.59,54.69c-31.55-1.52-55.3-18.09-75.47-41.74
		c-117.03-137.18-234.42-274.05-351.69-411.02C1386.02,411.67,1331.71,348.26,1274.66,281.63z"/>
</g>
</svg>
