<?xml version="1.0" encoding="utf-8"?>
<!-- Generator: Adobe Illustrator 25.4.1, SVG Export Plug-In . SVG Version: 6.00 Build 0)  -->
<svg version="1.1" id="Capa_1" xmlns="http://www.w3.org/2000/svg" xmlns:xlink="http://www.w3.org/1999/xlink" x="0px" y="0px"
	 viewBox="0 0 2551.18 2551.18" style="enable-background:new 0 0 2551.18 2551.18;" xml:space="preserve">
<style type="text/css">
	.st0{fill:#008D36;}
	.st1{fill:#95C11F;}
	.st2{fill:#FFFFFF;}
</style>
<path class="st0" d="M437.55,669.29c-110.72,167.8-175.36,370-175.36,587.62c0,581.15,460.94,1052.27,1029.55,1052.27
	c362.47,0,681.17-191.46,864.62-480.82L1671,1358.57L437.55,669.29z"/>
<path class="st1" d="M1291.73,204.64c-355.68,0-669.23,184.35-854.18,464.65L1671,1358.57l485.35,469.79
	c104.33-164.56,164.92-360.77,164.92-571.46C2321.27,675.75,1860.33,204.64,1291.73,204.64z"/>
<path class="st2" d="M2123.57,1879.93c-35.77-37.5-69.24-73.29-103.48-108.34c-136.66-139.93-274.97-278.09-430.38-397.77
	c-81.71-62.93-174.17-106.65-266.65-150.17c-237.29-111.68-469.22-232.98-687.26-379.48c-1.85-1.24-4.1-1.88-10.67-4.8
	c4.66,7.02,6.63,10.96,9.47,14.12c110.52,122.87,245.02,214.24,390.05,290.04c136.12,71.15,275.09,136.85,412.43,205.68
	c91.82,46.02,173.92,103.85,232.85,190.83c52.35,77.26,53.45,99.05-0.75,174.05c-62.97,87.13-142.84,148.3-253.04,160.14
	c-87.05,9.35-168.55-12.43-245.94-50.6c-128.62-63.44-232.58-153.74-308.05-277.36c-169.68-277.97-315.55-561.47-431.56-865.9
	c4.5-9.32,4.82-6.75,8.68-17.04c38.71,18.77,56.93,25,94.27,40.09c116.69,47.16,239.58,69.49,363.6,86.12
	c171.47,22.99,343.92,30.64,516.77,33.61c89.65,1.54,176.3,18.57,253.68,67.51c102.05,64.55,154.11,161.94,178.06,276.64
	c19.72,94.43,19.69,189.59,5.41,284.77c-2.29,15.29,0.1,26.76,11.26,38.83c93.62,101.27,186.31,203.38,279.78,304.79
	c9.95,10.8,22.29,24.1,13.78,38.14C2146.63,1849.04,2136.11,1862.89,2123.57,1879.93z"/>
</svg>
